<svg xmlns="http://www.w3.org/2000/svg" viewBox="5 0 90 78">
  <style>
    @media (prefers-color-scheme: dark) {
      svg { --c: white; }
    }
    svg { --c: black; }
  </style>
  <defs>
    <clipPath id="fc">
      <rect x="0" y="75" width="100" height="12"/>
    </clipPath>
  </defs>
  <g clip-path="url(#fc)">
    <line x1="40" y1="75" x2="20" y2="100" stroke="var(--c)" stroke-width="2"/>
    <line x1="60" y1="75" x2="80" y2="100" stroke="var(--c)" stroke-width="2"/>
    <g>
      <line x1="44" y1="70" x2="56" y2="70" stroke="var(--c)" stroke-width="1.5"/>
      <line x1="40" y1="75" x2="60" y2="75" stroke="var(--c)" stroke-width="1.5"/>
      <line x1="36" y1="80" x2="64" y2="80" stroke="var(--c)" stroke-width="1.5"/>
      <line x1="32" y1="85" x2="68" y2="85" stroke="var(--c)" stroke-width="1.5"/>
      <line x1="28" y1="90" x2="72" y2="90" stroke="var(--c)" stroke-width="1.5"/>
      <line x1="24" y1="95" x2="76" y2="95" stroke="var(--c)" stroke-width="1.5"/>
      <line x1="20" y1="100" x2="80" y2="100" stroke="var(--c)" stroke-width="1.5"/>
      <line x1="16" y1="105" x2="84" y2="105" stroke="var(--c)" stroke-width="1.5"/>
      <line x1="12" y1="110" x2="88" y2="110" stroke="var(--c)" stroke-width="1.5"/>
    </g>
  </g>
  <g>
    <rect x="15" y="2" width="70" height="63" rx="8" ry="8" fill="none" stroke="var(--c)" stroke-width="3"/>
    <line x1="15" y1="40" x2="85" y2="40" stroke="var(--c)" stroke-width="2"/>
    <rect x="21" y="9" width="20" height="22" rx="3" ry="3" fill="none" stroke="var(--c)" stroke-width="2"/>
    <rect x="59" y="9" width="20" height="22" rx="3" ry="3" fill="none" stroke="var(--c)" stroke-width="2"/>
    <circle cx="30" cy="54" r="4" fill="none" stroke="var(--c)" stroke-width="2"/>
    <circle cx="70" cy="54" r="4" fill="none" stroke="var(--c)" stroke-width="2"/>
    <polygon points="23,65 77,65 60,75 40,75" fill="none" stroke="var(--c)" stroke-width="2.5" stroke-linejoin="round"/>
  </g>
</svg>
